<svg id="svg" xmlns="http://www.w3.org/2000/svg" xmlns:xlink="http://www.w3.org/1999/xlink" width="400" height="400" viewBox="0, 0, 400,400"><g id="svgg"><path id="path0" d="M112.138 23.270 C 112.057 23.348,111.572 23.445,111.059 23.485 C 109.335 23.619,106.004 24.455,105.047 24.994 C 104.898 25.077,104.654 25.147,104.503 25.149 C 104.353 25.151,104.055 25.289,103.842 25.456 C 103.628 25.623,103.368 25.761,103.263 25.763 C 103.086 25.766,101.291 26.672,99.884 27.469 C 99.167 27.875,98.422 28.385,98.126 28.672 C 98.013 28.781,97.867 28.871,97.801 28.871 C 97.735 28.871,97.527 29.004,97.339 29.167 C 97.151 29.330,96.704 29.694,96.345 29.975 C 94.619 31.328,90.338 36.124,90.338 36.704 C 90.338 36.766,90.190 37.024,90.009 37.278 C 89.559 37.911,88.165 40.669,88.165 40.927 C 88.165 41.043,88.084 41.294,87.985 41.484 C 87.600 42.230,87.544 42.381,87.544 42.674 C 87.544 42.841,87.474 43.021,87.388 43.073 C 87.303 43.126,87.233 43.371,87.233 43.617 C 87.233 43.863,87.163 44.107,87.078 44.160 C 86.993 44.213,86.923 44.482,86.923 44.759 C 86.923 45.036,86.859 45.328,86.782 45.409 C 86.621 45.578,86.508 46.474,86.313 49.127 C 86.236 50.178,86.170 106.519,86.161 178.379 L 86.147 305.769 74.777 305.822 C 62.574 305.880,62.618 305.877,60.798 306.696 C 60.440 306.857,59.763 307.149,59.294 307.344 C 56.406 308.547,52.806 312.177,51.682 315.017 C 51.580 315.274,51.368 315.765,51.210 316.110 C 50.265 318.173,50.263 325.860,51.208 326.581 C 51.264 326.624,51.506 327.165,51.746 327.784 C 51.985 328.403,52.232 328.910,52.294 328.910 C 52.356 328.910,52.521 329.148,52.660 329.441 C 54.048 332.352,58.354 335.506,62.476 336.631 L 64.028 337.054 139.697 337.153 C 193.999 337.223,215.695 337.300,216.531 337.424 C 220.759 338.051,231.844 338.061,236.515 337.441 C 238.346 337.198,239.676 337.007,240.667 336.846 C 244.802 336.172,242.899 336.207,276.213 336.206 L 307.724 336.205 308.772 335.825 C 310.563 335.175,313.853 332.389,313.853 331.521 C 313.853 331.447,314.028 331.110,314.241 330.772 C 314.455 330.434,314.632 330.069,314.635 329.960 C 314.638 329.852,314.775 329.484,314.940 329.142 C 315.105 328.801,315.242 328.368,315.245 328.181 C 315.248 327.994,315.320 327.798,315.406 327.745 C 315.491 327.693,315.561 327.458,315.561 327.224 C 315.561 326.990,315.648 326.711,315.755 326.605 C 316.019 326.340,316.125 49.355,315.861 48.273 C 315.767 47.889,315.653 47.330,315.607 47.031 C 315.561 46.733,315.470 46.418,315.405 46.333 C 315.340 46.248,315.234 45.936,315.171 45.640 C 315.029 44.978,315.048 45.020,313.914 42.841 C 313.186 41.440,310.827 39.115,310.134 39.115 C 310.045 39.115,309.973 39.045,309.973 38.960 C 309.973 38.875,309.896 38.805,309.802 38.805 C 309.708 38.805,309.412 38.706,309.143 38.585 C 308.874 38.464,308.409 38.312,308.110 38.246 C 307.811 38.181,270.530 38.105,225.263 38.078 L 142.959 38.028 142.065 36.670 C 140.788 34.729,139.106 32.724,137.468 31.189 C 136.190 29.991,135.393 29.375,133.178 27.872 C 132.339 27.303,128.075 25.146,127.788 25.146 C 127.677 25.146,127.465 25.077,127.316 24.992 C 126.783 24.690,124.107 23.898,123.292 23.803 C 122.834 23.749,122.422 23.645,122.377 23.571 C 122.332 23.498,121.849 23.438,121.304 23.438 C 120.759 23.438,120.270 23.368,120.217 23.283 C 120.095 23.084,112.344 23.072,112.138 23.270 M193.636 65.279 C 194.148 65.410,194.847 65.584,195.188 65.667 C 195.530 65.751,195.949 65.877,196.120 65.949 C 196.290 66.020,196.954 66.243,197.594 66.444 C 198.234 66.645,198.825 66.865,198.906 66.932 C 198.987 67.000,199.150 67.055,199.269 67.055 C 199.387 67.055,199.937 67.264,200.490 67.520 C 201.044 67.776,201.527 67.986,201.564 67.986 C 202.151 67.986,209.870 72.346,210.633 73.108 C 210.675 73.151,211.059 73.427,211.486 73.721 C 211.913 74.016,212.297 74.295,212.340 74.342 C 212.383 74.389,212.767 74.707,213.194 75.048 C 215.049 76.532,216.851 78.218,218.859 80.350 C 220.204 81.778,220.308 81.900,221.654 83.662 C 222.907 85.301,222.937 85.339,223.133 85.570 C 223.222 85.674,223.463 86.038,223.669 86.380 C 223.874 86.721,224.086 87.035,224.140 87.078 C 224.193 87.121,224.287 87.260,224.348 87.388 C 224.527 87.762,224.834 88.270,225.019 88.497 C 225.276 88.814,226.098 90.351,227.122 92.433 C 227.626 93.458,228.103 94.417,228.183 94.565 C 228.262 94.713,228.328 94.940,228.328 95.070 C 228.328 95.199,228.397 95.305,228.483 95.305 C 228.568 95.305,228.640 95.427,228.643 95.576 C 228.646 95.726,228.783 96.127,228.948 96.469 C 229.113 96.810,229.251 97.208,229.254 97.352 C 229.256 97.496,229.323 97.654,229.401 97.702 C 229.478 97.750,229.589 98.069,229.647 98.410 C 229.705 98.751,229.808 99.030,229.876 99.030 C 229.944 99.030,230.047 99.343,230.104 99.725 C 230.161 100.107,230.266 100.455,230.336 100.499 C 230.407 100.543,230.514 100.911,230.575 101.317 C 230.635 101.724,230.739 102.127,230.806 102.212 C 230.873 102.297,230.969 102.577,231.020 102.833 C 231.072 103.089,231.203 103.752,231.312 104.307 C 231.421 104.862,231.555 105.386,231.610 105.471 C 231.665 105.557,231.761 106.185,231.823 106.868 C 231.884 107.551,231.998 108.189,232.074 108.285 C 232.151 108.381,232.278 109.813,232.358 111.467 C 232.437 113.121,232.549 114.743,232.606 115.070 C 232.664 115.402,232.639 115.816,232.549 116.002 C 232.460 116.186,232.348 117.656,232.299 119.268 C 232.251 120.881,232.148 122.278,232.071 122.373 C 231.995 122.468,231.882 123.122,231.821 123.827 C 231.760 124.532,231.647 125.147,231.571 125.194 C 231.494 125.242,231.430 125.468,231.428 125.698 C 231.426 125.928,231.280 126.640,231.103 127.280 C 230.926 127.920,230.713 128.723,230.628 129.065 C 230.543 129.406,230.414 129.825,230.341 129.996 C 230.268 130.167,230.161 130.551,230.104 130.850 C 230.046 131.149,229.945 131.463,229.880 131.548 C 229.814 131.634,229.711 131.935,229.650 132.218 C 229.590 132.502,229.442 132.921,229.323 133.150 C 229.203 133.379,229.105 133.654,229.105 133.762 C 229.104 133.870,229.036 134.080,228.954 134.228 C 228.871 134.376,228.654 134.847,228.470 135.274 C 227.874 136.660,226.922 138.675,226.601 139.232 C 226.428 139.530,226.207 139.967,226.109 140.202 C 226.011 140.437,225.877 140.629,225.810 140.629 C 225.743 140.629,225.689 140.706,225.689 140.802 C 225.689 141.143,223.100 145.123,221.864 146.682 C 221.491 147.152,220.995 147.778,220.760 148.075 C 217.966 151.604,210.443 158.077,207.528 159.459 C 207.400 159.520,206.946 159.777,206.519 160.032 C 205.824 160.445,202.028 162.349,201.242 162.678 C 201.071 162.750,200.603 162.952,200.203 163.127 C 199.802 163.302,199.399 163.446,199.308 163.446 C 199.217 163.446,199.021 163.510,198.873 163.589 C 198.724 163.667,197.555 164.061,196.275 164.465 C 194.994 164.869,193.839 165.250,193.708 165.312 C 193.576 165.374,193.157 165.473,192.776 165.532 C 192.395 165.590,191.909 165.702,191.696 165.781 C 191.288 165.931,190.197 166.102,187.117 166.497 C 185.012 166.767,177.070 166.953,176.510 166.745 C 176.220 166.638,173.257 160.681,161.261 136.086 L 146.372 105.559 146.372 91.215 L 146.372 76.870 146.964 76.347 C 148.278 75.187,148.610 74.921,150.289 73.675 C 154.958 70.210,161.657 66.897,166.473 65.672 C 166.814 65.585,167.478 65.413,167.947 65.289 C 169.256 64.943,192.283 64.934,193.636 65.279 M287.776 124.269 L 287.776 183.502 286.544 182.391 C 282.231 178.503,278.310 175.526,274.125 172.963 C 273.233 172.417,272.422 171.902,272.322 171.819 C 271.777 171.367,263.336 167.016,263.003 167.016 C 262.960 167.016,262.631 166.884,262.273 166.723 C 260.942 166.125,260.201 165.813,259.294 165.470 C 258.782 165.276,258.153 165.030,257.897 164.921 C 256.997 164.542,252.560 163.078,251.067 162.668 C 249.926 162.355,246.948 161.618,246.100 161.440 C 245.588 161.332,245.008 161.180,244.812 161.103 C 244.616 161.026,244.249 160.962,243.997 160.962 C 243.745 160.962,243.539 160.911,243.539 160.847 C 243.539 160.735,244.612 159.099,244.787 158.945 C 244.835 158.902,245.042 158.588,245.246 158.246 C 245.451 157.905,245.662 157.590,245.715 157.548 C 245.769 157.505,245.859 157.365,245.916 157.237 C 246.046 156.946,246.382 156.409,246.498 156.306 C 246.679 156.144,247.730 154.318,247.730 154.164 C 247.730 154.076,247.782 153.980,247.846 153.952 C 247.962 153.900,248.103 153.654,249.028 151.882 C 249.296 151.370,249.567 150.927,249.631 150.899 C 249.695 150.871,249.750 150.766,249.753 150.666 C 249.756 150.567,249.893 150.206,250.058 149.864 C 250.223 149.523,250.360 149.156,250.363 149.049 C 250.366 148.943,250.433 148.855,250.512 148.855 C 250.590 148.855,250.700 148.646,250.757 148.390 C 250.813 148.133,250.923 147.924,251.002 147.924 C 251.080 147.924,251.145 147.850,251.145 147.760 C 251.145 147.670,251.294 147.269,251.476 146.868 C 251.658 146.467,251.972 145.777,252.174 145.334 C 252.376 144.891,252.542 144.420,252.542 144.286 C 252.542 144.153,252.604 144.043,252.680 144.043 C 252.756 144.043,252.863 143.802,252.918 143.507 C 252.974 143.212,253.121 142.775,253.245 142.537 C 253.369 142.298,253.472 141.985,253.472 141.841 C 253.473 141.696,253.543 141.535,253.628 141.482 C 253.714 141.430,253.783 141.279,253.783 141.147 C 253.783 141.016,253.879 140.688,253.996 140.419 C 254.113 140.150,254.333 139.511,254.486 138.999 C 254.638 138.487,254.857 137.847,254.972 137.578 C 255.087 137.309,255.180 136.912,255.180 136.695 C 255.180 136.478,255.244 136.262,255.321 136.214 C 255.398 136.166,255.510 135.778,255.568 135.351 C 255.627 134.925,255.732 134.541,255.801 134.498 C 255.870 134.455,255.975 134.001,256.034 133.489 C 256.094 132.976,256.198 132.522,256.267 132.480 C 256.336 132.437,256.441 131.966,256.502 131.432 C 256.562 130.898,256.666 130.392,256.732 130.307 C 256.799 130.221,256.890 129.872,256.936 129.530 C 256.982 129.189,257.136 128.211,257.278 127.357 C 257.420 126.504,257.603 124.897,257.684 123.787 C 257.766 122.678,257.902 121.548,257.987 121.277 C 258.181 120.658,258.192 109.686,258.000 109.312 C 257.923 109.163,257.812 108.139,257.753 107.035 C 257.694 105.932,257.580 104.906,257.500 104.756 C 257.419 104.606,257.352 104.216,257.351 103.891 C 257.350 103.565,257.247 102.879,257.124 102.367 C 257.000 101.855,256.896 101.178,256.893 100.863 C 256.890 100.548,256.823 100.250,256.745 100.202 C 256.666 100.153,256.553 99.659,256.494 99.104 C 256.434 98.549,256.331 98.060,256.264 98.019 C 256.197 97.978,256.094 97.525,256.034 97.012 C 255.975 96.500,255.872 96.081,255.806 96.081 C 255.740 96.081,255.638 95.716,255.579 95.270 C 255.519 94.824,255.415 94.387,255.346 94.300 C 255.277 94.212,255.172 93.870,255.112 93.539 C 255.053 93.209,254.949 92.824,254.881 92.686 C 254.672 92.255,254.249 90.852,254.249 90.588 C 254.249 90.450,254.187 90.338,254.111 90.338 C 254.035 90.338,253.928 90.096,253.873 89.801 C 253.817 89.506,253.670 89.069,253.546 88.831 C 253.421 88.592,253.319 88.279,253.319 88.135 C 253.318 87.991,253.248 87.829,253.163 87.776 C 253.077 87.724,253.007 87.573,253.007 87.442 C 253.007 87.310,252.908 86.982,252.786 86.713 C 252.562 86.220,252.011 84.936,251.777 84.362 C 251.267 83.111,249.260 79.022,248.501 77.687 C 248.161 77.090,247.775 76.391,247.643 76.135 C 247.096 75.077,247.030 74.971,246.917 74.971 C 246.852 74.971,246.799 74.908,246.799 74.830 C 246.799 74.690,245.568 72.735,245.255 72.378 C 245.165 72.274,245.091 72.152,245.091 72.105 C 245.091 72.003,243.833 70.174,243.165 69.305 C 242.520 68.466,242.486 68.422,242.178 68.043 C 242.030 67.861,241.493 67.180,240.985 66.530 C 240.477 65.879,240.005 65.347,239.937 65.347 C 239.869 65.347,239.814 65.277,239.814 65.192 C 239.814 65.089,247.911 65.037,263.795 65.037 L 287.776 65.037 287.776 124.269 M233.727 189.190 C 233.763 189.299,234.174 189.367,234.782 189.367 C 235.343 189.367,235.778 189.435,235.778 189.523 C 235.778 189.608,236.158 189.678,236.623 189.678 C 237.087 189.678,237.505 189.739,237.552 189.815 C 237.598 189.890,238.161 190.001,238.803 190.061 C 239.444 190.121,239.969 190.234,239.969 190.312 C 239.969 190.390,240.213 190.454,240.512 190.454 C 240.811 190.454,241.055 190.524,241.055 190.609 C 241.055 190.695,241.300 190.764,241.599 190.764 C 241.898 190.764,242.142 190.834,242.142 190.920 C 242.142 191.005,242.386 191.075,242.685 191.075 C 242.984 191.075,243.229 191.140,243.229 191.219 C 243.229 191.298,243.613 191.411,244.082 191.470 C 244.552 191.528,244.936 191.638,244.936 191.714 C 244.936 191.789,245.111 191.851,245.324 191.851 C 245.537 191.851,245.712 191.921,245.712 192.006 C 245.712 192.092,245.853 192.161,246.025 192.161 C 246.197 192.161,246.458 192.225,246.607 192.304 C 247.331 192.686,248.049 192.938,248.413 192.938 C 248.635 192.938,248.816 193.007,248.816 193.093 C 248.816 193.178,248.921 193.248,249.049 193.248 C 249.177 193.248,249.282 193.318,249.282 193.403 C 249.282 193.489,249.418 193.558,249.583 193.558 C 249.749 193.558,249.924 193.622,249.972 193.700 C 250.020 193.778,250.339 193.889,250.680 193.947 C 251.021 194.004,251.300 194.115,251.300 194.193 C 251.300 194.271,251.405 194.334,251.533 194.334 C 251.661 194.334,251.766 194.404,251.766 194.490 C 251.766 194.575,251.905 194.645,252.076 194.645 C 252.247 194.645,252.386 194.715,252.386 194.800 C 252.386 194.886,252.509 194.958,252.658 194.960 C 252.808 194.963,253.065 195.068,253.231 195.193 C 253.397 195.318,253.659 195.421,253.813 195.421 C 253.968 195.421,254.094 195.491,254.094 195.576 C 254.094 195.662,254.199 195.731,254.327 195.731 C 254.455 195.731,254.560 195.801,254.560 195.887 C 254.560 195.972,254.699 196.042,254.870 196.042 C 255.041 196.042,255.180 196.097,255.180 196.165 C 255.180 196.233,255.495 196.418,255.879 196.577 C 256.263 196.735,256.577 196.924,256.577 196.997 C 256.577 197.069,256.682 197.128,256.810 197.128 C 256.938 197.128,257.044 197.181,257.045 197.245 C 257.046 197.309,257.343 197.500,257.705 197.669 C 258.066 197.838,258.475 198.100,258.613 198.251 C 258.752 198.402,258.979 198.525,259.118 198.525 C 259.257 198.525,259.371 198.584,259.371 198.656 C 259.371 198.728,259.616 198.919,259.915 199.080 C 260.213 199.240,260.458 199.426,260.458 199.492 C 260.458 199.558,260.547 199.612,260.656 199.612 C 260.766 199.612,260.956 199.752,261.079 199.922 C 261.202 200.093,261.389 200.233,261.496 200.233 C 261.602 200.233,261.903 200.442,262.165 200.698 C 262.427 200.955,262.692 201.164,262.753 201.165 C 262.814 201.165,263.087 201.375,263.360 201.631 C 263.633 201.886,263.960 202.095,264.087 202.095 C 264.214 202.095,264.362 202.235,264.416 202.406 C 264.470 202.577,264.562 202.717,264.620 202.719 C 264.679 202.720,264.943 202.912,265.208 203.146 C 265.473 203.379,265.883 203.710,266.119 203.880 C 266.356 204.051,266.628 204.282,266.725 204.393 C 266.936 204.638,267.578 205.287,268.788 206.480 C 269.286 206.970,269.848 207.529,270.038 207.722 C 270.227 207.914,270.454 208.141,270.543 208.227 C 270.870 208.543,271.565 209.356,271.867 209.774 C 272.245 210.298,272.907 210.943,273.068 210.943 C 273.133 210.943,273.186 211.057,273.186 211.197 C 273.186 211.336,273.360 211.612,273.574 211.810 C 273.787 212.008,273.962 212.226,273.962 212.294 C 273.963 212.362,274.172 212.662,274.428 212.961 C 274.683 213.260,274.893 213.553,274.893 213.613 C 274.893 213.674,275.068 213.897,275.281 214.111 C 275.495 214.324,275.669 214.572,275.669 214.661 C 275.669 214.750,275.732 214.823,275.809 214.823 C 275.886 214.823,276.023 215.034,276.112 215.291 C 276.202 215.548,276.384 215.800,276.516 215.851 C 276.648 215.902,276.756 216.075,276.756 216.237 C 276.756 216.399,276.826 216.531,276.911 216.531 C 276.997 216.531,277.066 216.631,277.066 216.753 C 277.066 216.875,277.154 217.067,277.260 217.179 C 277.367 217.292,277.554 217.577,277.675 217.811 C 277.796 218.046,277.953 218.238,278.024 218.238 C 278.095 218.238,278.153 218.343,278.153 218.471 C 278.153 218.599,278.223 218.704,278.308 218.704 C 278.393 218.704,278.463 218.814,278.463 218.948 C 278.463 219.217,279.234 220.614,279.428 220.696 C 279.495 220.724,279.550 220.847,279.550 220.968 C 279.550 221.088,279.612 221.187,279.688 221.187 C 279.764 221.187,279.872 221.432,279.928 221.731 C 279.984 222.029,280.096 222.274,280.178 222.274 C 280.259 222.274,280.326 222.377,280.326 222.502 C 280.326 222.628,280.457 222.964,280.618 223.250 C 280.778 223.536,280.959 223.992,281.018 224.264 C 281.078 224.535,281.191 224.757,281.270 224.757 C 281.348 224.757,281.412 224.893,281.412 225.059 C 281.412 225.224,281.482 225.403,281.568 225.456 C 281.653 225.509,281.723 225.687,281.723 225.853 C 281.723 226.019,281.793 226.154,281.878 226.154 C 281.964 226.154,282.033 226.294,282.033 226.465 C 282.033 226.636,282.094 226.775,282.169 226.775 C 282.243 226.775,282.350 227.062,282.406 227.413 C 282.462 227.764,282.646 228.336,282.814 228.684 C 282.982 229.032,283.120 229.444,283.120 229.598 C 283.120 229.753,283.190 229.880,283.275 229.880 C 283.360 229.880,283.430 230.085,283.430 230.336 C 283.430 230.587,283.494 230.832,283.571 230.880 C 283.648 230.927,283.760 231.316,283.818 231.743 C 283.877 232.169,283.988 232.518,284.066 232.518 C 284.143 232.518,284.206 232.759,284.206 233.053 C 284.206 233.346,284.276 233.630,284.362 233.683 C 284.447 233.735,284.517 233.972,284.517 234.209 C 284.517 234.446,284.569 234.691,284.633 234.755 C 284.753 234.873,285.095 236.692,285.240 237.990 C 285.286 238.395,285.386 238.727,285.463 238.727 C 285.540 238.727,285.603 239.107,285.603 239.572 C 285.603 240.036,285.673 240.459,285.759 240.512 C 285.844 240.565,285.914 241.087,285.914 241.673 C 285.914 242.282,285.984 242.760,286.078 242.792 C 286.307 242.868,286.308 254.228,286.079 254.457 C 285.988 254.548,285.914 255.097,285.914 255.677 C 285.914 256.277,285.847 256.733,285.759 256.733 C 285.673 256.733,285.603 257.113,285.603 257.577 C 285.603 258.042,285.534 258.465,285.448 258.518 C 285.363 258.570,285.293 258.920,285.293 259.294 C 285.293 259.668,285.231 260.012,285.156 260.058 C 285.081 260.105,284.970 260.667,284.910 261.308 C 284.850 261.949,284.737 262.513,284.659 262.561 C 284.581 262.610,284.517 262.851,284.517 263.097 C 284.517 263.343,284.447 263.587,284.362 263.640 C 284.276 263.693,284.206 263.937,284.206 264.183 C 284.206 264.429,284.143 264.670,284.066 264.717 C 283.988 264.765,283.877 265.153,283.818 265.580 C 283.760 266.007,283.648 266.395,283.571 266.443 C 283.494 266.491,283.430 266.735,283.430 266.986 C 283.430 267.237,283.360 267.443,283.275 267.443 C 283.190 267.443,283.120 267.569,283.120 267.724 C 283.120 267.879,282.982 268.290,282.814 268.638 C 282.646 268.987,282.462 269.559,282.406 269.909 C 282.350 270.260,282.243 270.547,282.169 270.547 C 282.094 270.547,282.033 270.687,282.033 270.858 C 282.033 271.028,281.964 271.168,281.878 271.168 C 281.793 271.168,281.723 271.261,281.723 271.375 C 281.723 271.488,281.549 271.925,281.336 272.345 C 281.122 272.765,280.948 273.225,280.947 273.367 C 280.947 273.509,280.891 273.649,280.823 273.677 C 280.667 273.743,280.066 275.028,279.920 275.608 C 279.859 275.850,279.681 276.185,279.525 276.353 C 279.368 276.521,279.153 276.855,279.046 277.096 C 278.940 277.336,278.806 277.532,278.748 277.532 C 278.690 277.532,278.594 277.755,278.534 278.028 C 278.474 278.300,278.347 278.607,278.250 278.709 C 277.772 279.215,277.532 279.575,277.532 279.784 C 277.532 279.912,277.463 280.016,277.380 280.016 C 277.296 280.016,277.184 280.190,277.130 280.404 C 277.077 280.617,276.970 280.792,276.894 280.792 C 276.818 280.792,276.756 280.915,276.756 281.065 C 276.756 281.215,276.616 281.425,276.445 281.532 C 276.275 281.638,276.135 281.827,276.135 281.950 C 276.135 282.073,275.960 282.349,275.747 282.563 C 275.534 282.776,275.359 283.024,275.359 283.113 C 275.359 283.202,275.304 283.275,275.237 283.275 C 275.170 283.275,274.983 283.502,274.821 283.780 C 274.660 284.057,274.400 284.397,274.245 284.535 C 274.089 284.673,273.961 284.848,273.959 284.923 C 273.958 284.998,273.766 285.282,273.533 285.552 C 273.299 285.823,272.899 286.299,272.643 286.612 C 272.386 286.924,272.020 287.345,271.828 287.548 C 271.636 287.751,271.478 287.959,271.478 288.010 C 271.478 288.085,270.545 289.087,269.494 290.138 C 269.385 290.248,269.051 290.582,268.752 290.881 C 268.453 291.180,268.158 291.475,268.097 291.538 C 267.685 291.960,266.143 293.366,265.670 293.752 C 265.356 294.009,264.902 294.393,264.661 294.606 C 263.989 295.202,263.071 295.919,262.897 295.985 C 262.811 296.018,262.531 296.245,262.275 296.489 C 262.018 296.734,261.753 296.934,261.684 296.934 C 261.615 296.934,261.384 297.109,261.170 297.322 C 260.957 297.536,260.709 297.711,260.620 297.711 C 260.531 297.711,260.458 297.774,260.458 297.851 C 260.458 297.928,260.247 298.064,259.990 298.154 C 259.733 298.243,259.481 298.425,259.430 298.557 C 259.380 298.689,259.206 298.797,259.044 298.797 C 258.883 298.797,258.750 298.852,258.750 298.919 C 258.750 298.987,258.366 299.243,257.897 299.489 C 257.427 299.734,257.043 299.993,257.043 300.065 C 257.043 300.136,256.938 300.194,256.810 300.194 C 256.682 300.194,256.577 300.255,256.577 300.330 C 256.577 300.405,256.385 300.505,256.151 300.552 C 255.916 300.600,255.569 300.783,255.381 300.959 C 255.192 301.136,254.931 301.281,254.799 301.281 C 254.667 301.281,254.560 301.350,254.560 301.436 C 254.560 301.521,254.455 301.591,254.327 301.591 C 254.199 301.591,254.094 301.661,254.094 301.746 C 254.094 301.832,253.990 301.901,253.862 301.901 C 253.539 301.901,252.386 302.415,252.386 302.559 C 252.386 302.624,252.247 302.678,252.076 302.678 C 251.905 302.678,251.766 302.744,251.766 302.826 C 251.766 302.907,251.520 303.020,251.221 303.076 C 250.921 303.132,250.637 303.240,250.591 303.316 C 250.544 303.392,250.370 303.454,250.204 303.454 C 250.039 303.454,249.903 303.523,249.903 303.609 C 249.903 303.694,249.763 303.764,249.593 303.764 C 249.422 303.764,249.282 303.834,249.282 303.919 C 249.282 304.005,249.177 304.075,249.049 304.075 C 248.921 304.075,248.816 304.135,248.816 304.209 C 248.816 304.283,248.551 304.380,248.228 304.423 C 247.904 304.467,247.332 304.650,246.957 304.832 C 246.582 305.013,246.148 305.161,245.993 305.161 C 245.839 305.161,245.712 305.231,245.712 305.316 C 245.712 305.402,245.537 305.471,245.324 305.471 C 245.111 305.471,244.936 305.546,244.936 305.637 C 244.936 305.728,244.722 305.780,244.457 305.753 C 243.982 305.705,243.790 305.317,218.148 252.738 C 203.941 223.607,192.317 199.743,192.317 199.706 C 192.317 199.587,194.307 198.215,194.479 198.215 C 194.570 198.215,194.645 198.156,194.645 198.083 C 194.645 198.011,194.924 197.826,195.266 197.672 C 195.607 197.518,195.887 197.341,195.887 197.278 C 195.887 197.216,196.009 197.124,196.158 197.074 C 196.308 197.024,196.814 196.762,197.284 196.492 C 198.891 195.567,201.956 194.045,202.412 193.945 C 202.663 193.890,202.908 193.780,202.957 193.702 C 203.005 193.623,203.181 193.558,203.346 193.558 C 203.512 193.558,203.648 193.489,203.648 193.403 C 203.648 193.318,203.773 193.248,203.927 193.248 C 204.081 193.248,204.273 193.192,204.354 193.125 C 204.435 193.057,204.920 192.870,205.433 192.709 C 205.945 192.548,206.430 192.360,206.511 192.289 C 206.593 192.219,206.785 192.161,206.938 192.161 C 207.092 192.161,207.218 192.092,207.218 192.006 C 207.218 191.921,207.427 191.851,207.683 191.851 C 207.939 191.851,208.149 191.790,208.149 191.716 C 208.149 191.641,208.495 191.535,208.919 191.478 C 209.342 191.422,209.730 191.309,209.782 191.226 C 209.833 191.143,210.076 191.075,210.322 191.075 C 210.568 191.075,210.813 191.005,210.865 190.920 C 210.918 190.834,211.167 190.764,211.418 190.764 C 211.669 190.764,211.874 190.695,211.874 190.609 C 211.874 190.524,212.119 190.454,212.418 190.454 C 212.716 190.454,212.961 190.392,212.961 190.317 C 212.961 190.242,213.484 190.131,214.124 190.071 C 214.764 190.011,215.327 189.898,215.375 189.820 C 215.423 189.742,215.839 189.678,216.298 189.678 C 216.757 189.678,217.177 189.608,217.229 189.523 C 217.282 189.437,217.775 189.367,218.325 189.367 C 218.875 189.367,219.325 189.300,219.325 189.219 C 219.325 188.883,233.615 188.855,233.727 189.190 M296.727 309.146 C 296.694 309.179,295.703 309.186,294.524 309.162 L 292.382 309.119 293.901 307.415 C 294.736 306.478,295.708 305.342,296.060 304.890 L 296.702 304.068 296.744 306.577 C 296.768 307.957,296.760 309.112,296.727 309.146 " stroke="none" fill="#000000" fill-rule="evenodd"></path></g></svg>