<?xml version="1.0" standalone="no"?>
<!DOCTYPE svg PUBLIC "-//W3C//DTD SVG 20010904//EN"
 "http://www.w3.org/TR/2001/REC-SVG-20010904/DTD/svg10.dtd">
<svg version="1.0" xmlns="http://www.w3.org/2000/svg"
 width="2577.000000pt" height="2577.000000pt" viewBox="0 0 2577.000000 2577.000000"
 preserveAspectRatio="xMidYMid meet">
<metadata>
Created by potrace 1.16, written by Peter Selinger 2001-2019
</metadata>
<g transform="translate(0.000000,2577.000000) scale(0.100000,-0.100000)"
fill="#000000" stroke="none">
<path d="M7275 24221 c-6 -5 -37 -11 -70 -14 -111 -9 -326 -63 -387 -97 -10
-6 -26 -10 -35 -10 -10 0 -29 -9 -43 -20 -14 -11 -31 -20 -37 -20 -12 0 -127
-58 -218 -110 -46 -26 -94 -59 -113 -77 -7 -7 -17 -13 -21 -13 -4 0 -18 -9
-30 -19 -12 -11 -41 -34 -64 -52 -111 -87 -387 -396 -387 -434 0 -4 -10 -20
-21 -37 -29 -40 -119 -218 -119 -235 0 -7 -5 -23 -12 -36 -24 -48 -28 -57 -28
-76 0 -11 -4 -23 -10 -26 -5 -3 -10 -19 -10 -35 0 -16 -4 -32 -10 -35 -5 -3
-10 -21 -10 -39 0 -17 -4 -36 -9 -41 -10 -11 -18 -69 -30 -240 -5 -68 -10
-3697 -10 -8327 l-1 -8207 -732 -4 c-787 -3 -784 -3 -901 -56 -23 -10 -67 -29
-97 -42 -186 -77 -418 -311 -490 -494 -7 -16 -21 -48 -31 -70 -30 -67 -52
-218 -46 -325 5 -91 32 -240 46 -250 4 -3 19 -38 35 -77 15 -40 31 -73 35 -73
4 0 15 -15 24 -34 40 -85 165 -218 282 -301 88 -63 234 -131 350 -162 l100
-28 4875 -6 c3498 -5 4896 -10 4950 -18 269 -39 888 -40 1190 0 102 13 193 26
265 38 266 43 144 41 2290 41 l2030 0 68 25 c85 30 189 103 247 172 74 88 80
96 80 105 0 4 11 26 25 48 14 22 25 45 25 52 1 7 9 31 20 53 11 22 19 50 20
62 0 12 5 25 10 28 5 3 10 19 10 34 0 15 6 33 13 39 17 18 23 17762 6 17832
-6 25 -13 61 -16 80 -3 19 -9 40 -13 45 -4 6 -11 26 -15 45 -9 42 -8 40 -81
180 -47 90 -199 240 -244 240 -5 0 -10 5 -10 10 0 6 -5 10 -11 10 -6 0 -25 6
-42 14 -18 8 -48 18 -67 22 -19 4 -2421 9 -5337 11 l-5303 3 -57 88 c-83 125
-191 254 -297 353 -82 77 -133 117 -276 213 -54 37 -329 176 -347 176 -7 0
-21 4 -31 10 -34 19 -206 70 -259 77 -29 3 -56 10 -59 14 -3 5 -34 9 -69 9
-35 0 -67 5 -70 10 -8 13 -407 14 -420 1z m5250 -2607 c33 -8 78 -19 100 -25
22 -5 49 -13 60 -18 11 -4 54 -19 95 -32 41 -13 79 -27 84 -31 6 -4 16 -8 24
-8 8 0 43 -13 79 -30 35 -16 66 -30 69 -30 2 0 61 -28 132 -62 135 -66 417
-233 452 -268 3 -3 28 -21 55 -39 28 -19 52 -37 55 -40 3 -4 28 -24 55 -46
120 -96 236 -204 365 -342 87 -92 93 -99 180 -213 81 -106 83 -108 95 -123 6
-7 22 -30 35 -52 13 -22 27 -42 30 -45 4 -3 10 -12 14 -20 11 -24 31 -57 43
-71 16 -21 69 -120 135 -254 33 -66 64 -128 69 -137 5 -10 9 -25 9 -33 0 -8 5
-15 10 -15 6 0 10 -8 10 -17 1 -10 9 -36 20 -58 11 -22 19 -48 20 -57 0 -9 4
-19 9 -22 5 -4 12 -24 16 -46 4 -22 10 -40 15 -40 4 0 11 -20 14 -45 4 -24 11
-47 15 -50 5 -2 12 -26 16 -52 4 -27 10 -52 15 -58 4 -5 10 -23 13 -40 4 -16
12 -59 19 -95 7 -36 16 -69 19 -75 4 -5 10 -46 14 -90 4 -44 11 -85 16 -91 5
-6 14 -101 20 -210 5 -110 12 -237 15 -283 3 -48 1 -93 -4 -105 -6 -12 -13
-106 -16 -210 -3 -104 -10 -194 -15 -200 -5 -6 -12 -48 -16 -94 -4 -45 -11
-85 -16 -88 -5 -3 -9 -17 -9 -32 0 -15 -10 -61 -21 -102 -12 -41 -25 -93 -31
-115 -5 -22 -14 -49 -18 -60 -5 -11 -12 -36 -16 -55 -3 -19 -10 -39 -14 -45
-4 -5 -11 -25 -15 -43 -4 -18 -13 -45 -21 -60 -8 -15 -14 -33 -14 -40 0 -7 -4
-20 -10 -30 -5 -9 -19 -39 -31 -67 -38 -89 -100 -219 -120 -255 -11 -19 -26
-47 -32 -62 -6 -16 -15 -28 -19 -28 -4 0 -8 -5 -8 -11 0 -22 -167 -279 -246
-379 -24 -30 -56 -71 -72 -90 -86 -109 -323 -342 -472 -465 -91 -74 -335 -247
-380 -268 -8 -4 -37 -21 -65 -37 -45 -27 -289 -149 -340 -171 -11 -4 -41 -17
-67 -28 -26 -12 -52 -21 -58 -21 -5 0 -18 -4 -28 -9 -9 -5 -84 -31 -167 -57
-82 -26 -157 -50 -165 -54 -9 -4 -36 -11 -60 -14 -25 -4 -56 -11 -70 -16 -26
-10 -95 -21 -295 -47 -136 -17 -746 -29 -784 -15 -18 6 -213 399 -982 1975
l-959 1966 0 975 0 974 38 33 c85 75 106 92 214 173 230 170 515 326 783 428
77 29 216 76 260 87 22 6 65 17 95 25 84 22 1668 23 1755 0z m6065 -3849 l0
-3865 -51 0 c-50 0 -54 2 -133 73 -274 248 -526 439 -795 604 -58 35 -110 68
-117 74 -35 29 -579 309 -600 309 -3 0 -26 10 -52 21 -83 38 -126 55 -187 79
-33 12 -73 28 -90 35 -58 24 -344 119 -440 145 -74 20 -265 68 -320 79 -33 7
-70 17 -83 22 -13 5 -36 9 -52 9 -30 0 -30 0 -30 57 0 50 5 65 37 113 21 30
40 57 43 60 4 3 17 23 30 45 13 22 27 42 30 45 4 3 9 12 13 20 9 19 30 53 38
60 11 10 79 128 79 138 0 6 3 12 8 14 7 3 16 19 76 133 17 33 34 61 39 63 4 2
7 9 7 15 1 7 9 30 20 52 11 22 19 46 20 53 0 6 4 12 9 12 5 0 12 14 16 30 4
17 11 30 16 30 5 0 9 5 9 11 0 5 10 31 21 57 12 26 32 70 45 99 13 28 24 59
24 67 0 9 4 16 9 16 5 0 12 16 15 35 4 19 13 47 21 62 8 15 15 36 15 45 0 9 5
20 10 23 6 3 10 13 10 22 0 8 6 29 14 46 7 18 21 59 31 92 10 33 24 74 32 92
7 17 13 42 13 56 0 14 4 28 9 31 5 4 12 29 16 56 4 27 11 52 15 55 4 3 11 32
15 65 4 33 11 62 15 65 4 3 11 33 15 67 4 35 11 68 15 73 4 6 10 28 13 50 3
22 13 85 22 140 9 55 21 159 26 230 6 72 15 146 20 165 22 79 -4 895 -31 958
-6 13 -10 40 -10 60 0 20 -7 64 -15 97 -8 33 -14 77 -15 97 0 20 -4 39 -9 43
-5 3 -13 34 -16 70 -4 36 -11 67 -15 70 -5 3 -11 32 -15 65 -4 33 -10 60 -15
60 -4 0 -11 24 -14 52 -4 29 -11 57 -15 63 -5 5 -12 27 -15 49 -4 21 -11 46
-15 55 -14 27 -41 118 -41 135 0 9 -4 16 -9 16 -5 0 -12 16 -15 35 -4 19 -13
47 -21 62 -8 15 -15 36 -15 45 0 9 -4 20 -10 23 -5 3 -10 13 -10 22 0 8 -6 29
-14 46 -15 32 -50 115 -65 152 -33 81 -162 344 -211 430 -22 39 -47 84 -56
100 -35 68 -39 75 -46 75 -5 0 -8 4 -8 9 0 9 -79 135 -99 158 -6 7 -11 15 -11
18 0 6 -81 124 -124 180 -42 54 -44 57 -64 81 -9 12 -44 56 -77 98 -32 42 -63
76 -67 76 -4 0 -8 27 -8 60 l0 60 1595 0 1595 0 0 -3865z m-3482 -4133 c2 -8
28 -12 68 -12 36 0 64 -4 64 -10 0 -5 24 -10 54 -10 30 0 57 -4 60 -9 3 -5 40
-12 81 -16 41 -4 75 -11 75 -16 0 -5 16 -9 35 -9 19 0 35 -4 35 -10 0 -5 16
-10 35 -10 19 0 35 -4 35 -10 0 -5 16 -10 35 -10 19 0 35 -4 35 -9 0 -5 25
-13 55 -16 30 -4 55 -11 55 -16 0 -5 11 -9 25 -9 14 0 25 -4 25 -10 0 -5 9
-10 20 -10 11 0 28 -4 38 -9 46 -25 93 -41 116 -41 14 0 26 -4 26 -10 0 -5 7
-10 15 -10 8 0 15 -4 15 -10 0 -5 9 -10 19 -10 11 0 22 -4 25 -9 4 -5 24 -12
46 -16 22 -4 40 -11 40 -16 0 -5 7 -9 15 -9 8 0 15 -4 15 -10 0 -5 9 -10 20
-10 11 0 20 -4 20 -10 0 -5 8 -10 18 -10 9 0 26 -7 36 -15 11 -8 28 -15 38
-15 10 0 18 -4 18 -10 0 -5 7 -10 15 -10 8 0 15 -4 15 -10 0 -5 9 -10 20 -10
11 0 20 -4 20 -8 0 -4 20 -16 45 -26 25 -11 45 -23 45 -28 0 -4 7 -8 15 -8 8
0 15 -3 15 -7 0 -5 19 -17 43 -28 23 -11 49 -28 58 -37 9 -10 24 -18 33 -18 9
0 16 -4 16 -8 0 -5 16 -17 35 -28 19 -10 35 -22 35 -26 0 -5 6 -8 13 -8 7 0
19 -9 27 -20 8 -11 20 -20 27 -20 7 0 26 -13 43 -30 17 -16 34 -30 38 -30 4 0
21 -14 39 -30 18 -17 39 -30 47 -30 8 0 18 -9 21 -20 3 -11 9 -20 13 -20 4 0
21 -13 38 -28 17 -15 43 -36 59 -47 15 -11 33 -26 39 -33 13 -16 55 -58 133
-134 32 -32 68 -68 80 -80 12 -13 27 -27 33 -33 21 -20 66 -73 85 -100 24 -33
67 -75 77 -75 5 0 8 -7 8 -16 0 -9 11 -27 25 -40 14 -13 25 -27 25 -31 0 -4
14 -24 30 -43 16 -19 30 -38 30 -42 0 -4 11 -18 25 -32 14 -14 25 -30 25 -36
0 -5 4 -10 9 -10 5 0 14 -14 20 -30 5 -17 17 -33 26 -36 8 -3 15 -15 15 -25 0
-10 5 -19 10 -19 6 0 10 -6 10 -14 0 -8 6 -21 13 -28 6 -7 18 -25 26 -40 8
-16 18 -28 23 -28 4 0 8 -7 8 -15 0 -8 5 -15 10 -15 6 0 10 -7 10 -16 0 -17
50 -107 62 -112 4 -2 8 -10 8 -18 0 -8 4 -14 9 -14 5 0 12 -16 15 -35 4 -19
11 -35 16 -35 6 0 10 -7 10 -15 0 -8 8 -29 19 -48 10 -18 22 -48 26 -65 3 -18
11 -32 16 -32 5 0 9 -9 9 -19 0 -11 5 -23 10 -26 6 -3 10 -15 10 -26 0 -10 5
-19 10 -19 6 0 10 -9 10 -20 0 -11 4 -20 9 -20 5 0 11 -18 15 -41 4 -23 15
-60 26 -82 11 -22 20 -49 20 -59 0 -10 5 -18 10 -18 6 0 10 -13 10 -29 0 -17
4 -32 9 -35 5 -4 12 -29 16 -56 4 -28 11 -50 16 -50 5 0 9 -15 9 -34 0 -19 5
-38 10 -41 6 -3 10 -19 10 -34 0 -15 3 -31 8 -35 7 -8 29 -125 39 -208 3 -27
9 -48 14 -48 5 0 9 -24 9 -54 0 -30 5 -58 10 -61 6 -3 10 -37 10 -75 0 -41 4
-70 11 -72 16 -5 16 -835 0 -851 -6 -6 -11 -42 -11 -79 0 -39 -4 -68 -10 -68
-5 0 -10 -24 -10 -54 0 -30 -4 -58 -10 -61 -5 -3 -10 -26 -10 -50 0 -24 -4
-46 -9 -49 -5 -3 -12 -39 -16 -81 -4 -41 -11 -77 -16 -81 -5 -3 -9 -18 -9 -34
0 -16 -4 -32 -10 -35 -5 -3 -10 -19 -10 -35 0 -16 -4 -31 -9 -34 -5 -4 -12
-29 -16 -56 -4 -27 -11 -52 -16 -56 -5 -3 -9 -18 -9 -35 0 -16 -4 -29 -10 -29
-5 0 -10 -8 -10 -18 0 -10 -9 -37 -20 -59 -11 -22 -22 -59 -26 -82 -4 -23 -10
-41 -15 -41 -5 0 -9 -9 -9 -20 0 -11 -4 -20 -10 -20 -5 0 -10 -6 -10 -13 0 -8
-11 -36 -25 -63 -14 -27 -25 -56 -25 -66 0 -9 -4 -18 -8 -20 -10 -4 -49 -87
-58 -124 -4 -16 -16 -37 -26 -48 -10 -11 -24 -32 -30 -48 -7 -15 -16 -28 -20
-28 -3 0 -10 -14 -13 -32 -4 -17 -13 -37 -19 -44 -31 -32 -46 -56 -46 -69 0
-8 -4 -15 -10 -15 -5 0 -12 -11 -16 -25 -3 -14 -10 -25 -15 -25 -5 0 -9 -8 -9
-18 0 -9 -9 -23 -20 -30 -11 -7 -20 -19 -20 -27 0 -8 -11 -25 -25 -39 -14 -14
-25 -30 -25 -36 0 -5 -4 -10 -8 -10 -4 0 -16 -15 -27 -32 -10 -18 -27 -40 -37
-49 -10 -9 -18 -20 -18 -25 0 -5 -13 -23 -28 -41 -15 -17 -40 -48 -57 -68 -16
-20 -40 -47 -52 -60 -13 -13 -23 -27 -23 -30 0 -5 -60 -69 -128 -137 -7 -7
-27 -27 -45 -45 -18 -18 -36 -37 -42 -42 -30 -31 -127 -120 -159 -146 -20 -16
-50 -41 -65 -55 -44 -38 -103 -85 -114 -89 -5 -2 -23 -17 -40 -32 -16 -16 -34
-29 -38 -29 -4 0 -19 -11 -33 -25 -14 -14 -30 -25 -36 -25 -5 0 -10 -4 -10 -9
0 -5 -14 -14 -30 -20 -17 -5 -33 -17 -36 -26 -3 -8 -15 -15 -25 -15 -10 0 -19
-4 -19 -8 0 -4 -25 -21 -55 -37 -30 -15 -55 -32 -55 -37 0 -4 -7 -8 -15 -8 -8
0 -15 -4 -15 -9 0 -5 -12 -11 -27 -14 -16 -3 -38 -15 -50 -26 -12 -12 -29 -21
-38 -21 -8 0 -15 -4 -15 -10 0 -5 -7 -10 -15 -10 -8 0 -15 -4 -15 -10 0 -5 -7
-10 -15 -10 -21 0 -95 -33 -95 -42 0 -5 -9 -8 -20 -8 -11 0 -20 -4 -20 -10 0
-5 -16 -12 -35 -16 -19 -3 -38 -10 -41 -15 -3 -5 -14 -9 -25 -9 -10 0 -19 -4
-19 -10 0 -5 -9 -10 -20 -10 -11 0 -20 -4 -20 -10 0 -5 -7 -10 -15 -10 -8 0
-15 -4 -15 -9 0 -4 -17 -11 -38 -13 -21 -3 -58 -15 -82 -27 -24 -11 -52 -21
-62 -21 -10 0 -18 -4 -18 -10 0 -5 -11 -10 -25 -10 -14 0 -25 -5 -25 -10 0 -7
-30 -10 -81 -8 l-81 3 -1664 3412 c-1589 3258 -1664 3415 -1664 3467 l0 54 64
46 c36 25 69 46 75 46 6 0 11 4 11 8 0 5 18 17 40 27 22 10 40 21 40 25 0 4 8
10 18 14 9 3 42 20 72 37 104 60 301 158 330 164 17 4 32 11 35 16 4 5 15 9
26 9 10 0 19 5 19 10 0 6 8 10 18 10 10 0 22 4 27 8 6 4 37 16 70 27 33 10 64
22 70 27 5 4 17 8 27 8 10 0 18 5 18 10 0 6 14 10 30 10 17 0 30 4 30 9 0 5
22 11 50 15 27 4 52 11 55 16 3 6 19 10 35 10 16 0 32 5 35 10 3 6 19 10 36
10 16 0 29 5 29 10 0 6 16 10 35 10 19 0 35 4 35 9 0 5 34 12 75 16 41 4 77
11 81 16 3 5 29 9 59 9 30 0 57 5 60 10 3 6 35 10 71 10 35 0 64 4 64 10 0 14
124 17 594 15 319 -1 431 -5 434 -13z m4062 -7617 l0 -215 -190 0 -190 0 0 54
0 55 96 108 c53 59 115 131 138 160 40 52 42 53 93 53 l53 0 0 -215z"/>
</g>
</svg>
